# xmcd
#
# Track frame offsets:
#	150
#	11200
#	21813
#	37210
#	47248
#	61125
#	73763
#	86935
#	99963
#	112135
#	123288
#	135700
#	147400
#
# Disc length: 2119 seconds
#
# Revision: 1
# Processed by: cddbd v1.5.2PL0 Copyright (c) Steve Scherf et al.
# Submitted via: audiograbber 1.83.01
#
DISCID=c208450d
DTITLE=Country Music - Country Volume Two
DYEAR=1900
DGENRE=Country
TTITLE0=Hank Locklin - Send Me The Pillow
TTITLE1=Ricky Nelson - Travelin' Man
TTITLE2=Kenny Rogers - For The Good Times
TTITLE3=Linn Anderson - What A Man My Man Is
TTITLE4=Willie Nelson - Home Is Where You're Happy
TTITLE5=Carl Perkins - Take Me Back
TTITLE6=Charlie Pride - Kaw Liga (Live)
TTITLE7=George Jones - Things Have Gone To Pices
TTITLE8=Susan Raye - L. A. International Airport
TTITLE9=Brenda Lee - That's All You Gotta Do (Live)
TTITLE10=Jeanne Pruett - Satin Sheets
TTITLE11=Patsy Cline - Walkin' After Midnight
TTITLE12=Brenda Lee - Silver Threads (And Golden Needles)
EXTD=
EXTT0=
EXTT1=
EXTT2=
EXTT3=
EXTT4=
EXTT5=
EXTT6=
EXTT7=
EXTT8=
EXTT9=
EXTT10=
EXTT11=
EXTT12=
PLAYORDER=
